HIERARCHY
ROOT Hips
{
	OFFSET 0.00000 0.00000 0.00000
	CHANNELS 6 Xposition Yposition Zposition Zrotation Yrotation Xrotation 
	JOINT LHipJoint
	{
		OFFSET 0 0 0
		CHANNELS 3 Zrotation Yrotation Xrotation
		JOINT LeftUpLeg
		{
			OFFSET 1.75344 -1.53157 0.77399
			CHANNELS 3 Zrotation Yrotation Xrotation
			JOINT LeftLeg
			{
				OFFSET 2.25415 -6.19323 0.00000
				CHANNELS 3 Zrotation Yrotation Xrotation
				JOINT LeftFoot
				{
					OFFSET 2.30342 -6.32861 0.00000
					CHANNELS 3 Zrotation Yrotation Xrotation
					JOINT LeftToeBase
					{
						OFFSET 0.10958 -0.30108 1.49206
						CHANNELS 3 Zrotation Yrotation Xrotation
						End Site
						{
							OFFSET 0.00000 -0.00000 0.77783
						}
					}
				}
			}
		}
	}
	JOINT RHipJoint
	{
		OFFSET 0 0 0
		CHANNELS 3 Zrotation Yrotation Xrotation
		JOINT RightUpLeg
		{
			OFFSET -1.81912 -1.53156 0.77399
			CHANNELS 3 Zrotation Yrotation Xrotation
			JOINT RightLeg
			{
				OFFSET -2.22882 -6.12365 0.00000
				CHANNELS 3 Zrotation Yrotation Xrotation
				JOINT RightFoot
				{
					OFFSET -2.21943 -6.09785 0.00000
					CHANNELS 3 Zrotation Yrotation Xrotation
					JOINT RightToeBase
					{
						OFFSET -0.18931 -0.52012 1.59379
						CHANNELS 3 Zrotation Yrotation Xrotation
						End Site
						{
							OFFSET -0.00000 -0.00000 0.84686
						}
					}
				}
			}
		}
	}
	JOINT LowerBack
	{
		OFFSET 0 0 0
		CHANNELS 3 Zrotation Yrotation Xrotation
		JOINT Spine
		{
			OFFSET -0.00200 1.66634 -0.14248
			CHANNELS 3 Zrotation Yrotation Xrotation
			JOINT Spine1
			{
				OFFSET -0.00875 1.64542 0.09514
				CHANNELS 3 Zrotation Yrotation Xrotation
				JOINT Neck
				{
					OFFSET 0 0 0
					CHANNELS 3 Zrotation Yrotation Xrotation
					JOINT Neck1
					{
						OFFSET 0.02257 1.59605 0.00839
						CHANNELS 3 Zrotation Yrotation Xrotation
						JOINT Head
						{
							OFFSET -0.10214 1.57530 -0.23335
							CHANNELS 3 Zrotation Yrotation Xrotation
							End Site
							{
								OFFSET -0.03588 1.60717 -0.08062
							}
						}
					}
				}
				JOINT LeftShoulder
				{
					OFFSET 0 0 0
					CHANNELS 3 Zrotation Yrotation Xrotation
					JOINT LeftArm
					{
						OFFSET 2.54983 1.10186 0.40078
						CHANNELS 3 Zrotation Yrotation Xrotation
						JOINT LeftForeArm
						{
							OFFSET 4.28840 -0.00000 0.00000
							CHANNELS 3 Zrotation Yrotation Xrotation
							JOINT LeftHand
							{
								OFFSET 3.06552 -0.00000 -0.00000
								CHANNELS 3 Zrotation Yrotation Xrotation
								JOINT LeftFingerBase
								{
									OFFSET 0 0 0
									CHANNELS 3 Zrotation Yrotation Xrotation
									JOINT LeftHandIndex1
									{
										OFFSET 0.75304 -0.00000 0.00000
										CHANNELS 3 Zrotation Yrotation Xrotation
										End Site
										{
											OFFSET 0.60712 -0.00000 0.00000
										}
									}
								}
								JOINT LThumb
								{
									OFFSET 0 0 0
									CHANNELS 3 Zrotation Yrotation Xrotation
									End Site
									{
										OFFSET 0.61639 -0.00000 0.61639
									}
								}
							}
						}
					}
				}
				JOINT RightShoulder
				{
					OFFSET 0 0 0
					CHANNELS 3 Zrotation Yrotation Xrotation
					JOINT RightArm
					{
						OFFSET -2.60909 1.35448 0.21802
						CHANNELS 3 Zrotation Yrotation Xrotation
						JOINT RightForeArm
						{
							OFFSET -4.52172 -0.00000 -0.00000
							CHANNELS 3 Zrotation Yrotation Xrotation
							JOINT RightHand
							{
								OFFSET -2.89140 -0.00000 0.00000
								CHANNELS 3 Zrotation Yrotation Xrotation
								JOINT RightFingerBase
								{
									OFFSET 0 0 0
									CHANNELS 3 Zrotation Yrotation Xrotation
									JOINT RightHandIndex1
									{
										OFFSET -0.68054 -0.00000 0.00000
										CHANNELS 3 Zrotation Yrotation Xrotation
										End Site
										{
											OFFSET -0.54867 -0.00000 0.00000
										}
									}
								}
								JOINT RThumb
								{
									OFFSET 0 0 0
									CHANNELS 3 Zrotation Yrotation Xrotation
									End Site
									{
										OFFSET -0.55705 -0.00000 0.55705
									}
								}
							}
						}
					}
				}
			}
		}
	}
}
MOTION
Frames: 10
Frame Time: .0083333
10.4521 19.2167 18.4177 -178.9070 181.6310 184.5790 0.0000 0.0000 0.0000 -22.8368 -8.7288 -10.2105 3.2155 11.0359 32.4011 1.7942 11.6465 24.1845 5.0456 -13.4350 -41.0194 0.0000 0.0000 0.0000 22.9858 11.6731 -6.5062 -1.2971 -7.2157 20.3561 -0.2566 -27.9867 21.2712 -0.9292 -6.1409 17.1937 -4.9745 -2.1672 8.6197 3.3436 -3.2663 -4.9645 6.9650 -1.1215 -9.7089 -23.5819 -21.3650 8.6004 24.4996 -30.5241 -7.5650 8.7159 -15.6351 3.8341 0.0000 0.0000 0.0000 -80.4429 29.2953 50.8116 22.7359 -33.7987 -6.9908 -0.0000 -0.0000 16.2811 -14.3424 -33.2859 7.9879 -7.1250 0.0000 -0.0000 -25.1788 -1.5149 28.7406 0.0000 0.0000 0.0000 67.8280 11.8100 93.6768 -80.3067 59.6420 -51.6154 0.0000 -0.0000 -1.0326 10.5569 -45.5545 -7.5787 7.1250 -0.0000 -0.0000 63.2794 -64.7322 -36.5404
10.5085 19.2732 18.3884 -178.5400 188.1180 184.2600 0.0000 0.0000 0.0000 -22.9923 -8.2626 -9.5304 3.0124 10.7152 31.3251 1.8032 11.1083 24.1908 4.8688 -13.2345 -40.2527 0.0000 0.0000 0.0000 22.5907 11.5744 -6.2196 -1.3659 -7.3970 20.8969 -0.0025 -28.4840 20.1696 -1.0855 -6.6218 18.5996 -7.5572 -1.9421 11.0421 4.4078 -3.3895 -5.6952 9.9184 -0.7862 -11.8122 -23.6963 -20.8333 7.6899 22.7277 -29.7301 -6.1166 8.2672 -15.1270 3.9134 -0.0000 0.0000 0.0000 -83.3023 32.8685 49.0212 23.7852 -34.9363 -7.5832 -0.0000 -0.0000 16.5866 -15.4195 -33.0083 8.5448 -7.1250 0.0000 -0.0000 -25.7244 -1.2880 29.4132 -0.0000 0.0000 0.0000 68.0057 11.3524 96.6638 -79.7122 59.5963 -51.1026 0.0000 -0.0000 -0.6976 11.0341 -45.5386 -7.9232 7.1250 -0.0000 -0.0000 63.6308 -64.5822 -36.6197
10.5887 19.3161 18.3613 -178.4820 194.6180 184.2880 0.0000 0.0000 0.0000 -22.9258 -8.0240 -9.4103 2.8587 10.4627 30.4885 1.9024 9.1373 24.7404 5.5265 -13.9532 -43.0503 0.0000 0.0000 0.0000 22.3203 11.4857 -6.5324 -1.4148 -7.5226 21.2732 0.1314 -28.6295 19.5006 -1.1649 -6.8516 19.2765 -7.1808 -1.3054 12.5301 4.0192 -2.6206 -6.4362 9.2720 -0.3068 -13.7989 -24.0184 -20.6342 8.2726 22.5934 -29.7622 -5.1128 8.2775 -15.1653 4.1528 -0.0000 0.0000 0.0000 -82.5190 35.9342 50.3043 24.9730 -36.1764 -8.2740 -0.0000 -0.0000 15.2166 -18.1131 -32.6412 10.0059 -7.1250 0.0000 -0.0000 -27.0500 -1.0717 31.2451 -0.0000 0.0000 0.0000 69.6779 9.5916 97.5368 -78.7623 59.5174 -50.2837 0.0000 -0.0000 -0.4669 10.2425 -45.3994 -7.3312 7.1250 -0.0000 -0.0000 62.7537 -64.7457 -36.1434
10.6767 19.3485 18.3319 -178.5080 200.2070 184.5840 0.0000 0.0000 0.0000 -22.8695 -8.3931 -9.4476 2.7455 10.2713 29.8597 1.9544 6.4562 25.1722 6.4401 -14.8417 -46.7235 0.0000 0.0000 0.0000 21.9818 10.4861 -7.0977 -1.4245 -7.5473 21.3472 0.1301 -28.3553 19.3023 -1.1480 -6.8034 19.1342 -6.2191 -1.1907 11.1062 3.3468 -2.2629 -5.2525 7.6950 -0.4347 -11.6551 -23.2182 -20.9009 7.1597 24.1007 -29.8379 -5.7843 8.4784 -15.1969 4.3102 -0.0000 0.0000 0.0000 -81.2559 35.3439 51.2760 25.9007 -37.1105 -8.8277 -0.0000 -0.0000 13.3945 -19.0535 -32.1782 10.4219 -7.1250 0.0000 -0.0000 -27.5388 -0.7037 31.7916 -0.0000 0.0000 0.0000 71.7946 11.4922 97.2026 -77.5434 59.4055 -49.2338 0.0000 -0.0000 -0.8580 9.7435 -45.2421 -6.9519 7.1250 -0.0000 -0.0000 62.0745 -64.8117 -35.6981
10.7607 19.3746 18.3295 -178.6500 206.4360 185.5320 0.0000 0.0000 0.0000 -22.4911 -8.8297 -10.3308 2.6784 10.1554 29.4814 1.9404 4.9250 25.2436 6.7692 -15.1344 -47.9960 0.0000 0.0000 0.0000 21.7951 11.1160 -7.8776 -1.4313 -7.5646 21.3992 0.7429 -30.3393 17.2806 -1.7497 -8.3241 23.7029 -5.9249 -0.7213 10.4901 3.2532 -1.5677 -5.5874 7.2680 -0.1164 -11.7967 -23.7837 -20.7043 7.8264 24.4867 -29.8030 -5.7014 8.7185 -15.2247 4.3805 0.0000 0.0000 0.0000 -80.7993 37.4785 52.8113 26.8870 -38.0712 -9.4293 -0.0000 -0.0000 12.2626 -17.3015 -31.9503 9.3603 -7.1250 0.0000 -0.0000 -26.7241 -0.3878 30.4244 0.0000 0.0000 0.0000 72.6244 10.5393 97.1792 -76.8487 59.3363 -48.6360 0.0000 -0.0000 -0.6964 10.2592 -44.7770 -7.2651 7.1250 -0.0000 -0.0000 61.6808 -64.4125 -34.8708
10.8290 19.3821 18.3462 -179.3730 212.5770 186.2510 0.0000 0.0000 0.0000 -21.8087 -9.2580 -10.4420 2.6372 10.0833 29.2468 1.9106 4.0352 25.1762 6.7975 -15.1590 -48.1041 0.0000 0.0000 0.0000 22.1182 11.2576 -7.9370 -1.4283 -7.5571 21.3767 2.0417 -33.2218 12.1964 -3.4392 -11.3743 33.5527 -5.4501 -0.4701 9.9085 3.2514 -1.1256 -5.2983 6.8686 0.0189 -11.1918 -22.9269 -20.6965 6.9938 24.1006 -29.5790 -5.3861 8.4773 -15.0694 4.3585 -0.0000 0.0000 0.0000 -80.5330 38.9536 53.3087 27.9961 -39.1126 -10.1212 -0.0000 -0.0000 10.2220 -17.3464 -31.6807 9.3160 -7.1250 0.0000 -0.0000 -26.7703 -0.1406 30.3681 -0.0000 0.0000 0.0000 73.5909 10.5497 97.4136 -76.0977 59.2570 -47.9903 0.0000 -0.0000 -0.6633 10.9426 -44.6235 -7.7341 7.1250 -0.0000 -0.0000 61.9734 -64.1307 -34.7246
10.9062 19.3750 18.3397 -179.8440 217.6160 187.4570 0.0000 0.0000 0.0000 -21.1964 -10.5642 -11.1054 2.5854 9.9916 28.9496 1.8842 2.9084 25.2086 6.8317 -15.1885 -48.2349 0.0000 0.0000 0.0000 22.2604 10.6160 -9.0977 -1.4387 -7.5833 21.4553 1.8366 -33.4235 13.7501 -2.6376 -10.0839 29.2487 -5.1438 -0.4816 9.5664 3.2161 -1.0906 -5.4380 6.6380 0.0098 -11.1507 -22.5545 -20.5171 6.7081 24.2337 -29.2659 -5.3916 8.5188 -14.9143 4.3071 0.0000 0.0000 0.0000 -80.3003 40.4932 53.4233 29.1081 -40.1165 -10.8303 -0.0000 -0.0000 7.3606 -19.8662 -31.0924 10.5697 -7.1250 0.0000 -0.0000 -28.0322 0.2384 32.0425 0.0000 0.0000 0.0000 74.3026 10.1961 97.4135 -75.3273 59.1707 -47.3285 0.0000 -0.0000 -0.6827 10.8167 -44.8676 -7.6766 7.1250 -0.0000 -0.0000 62.2886 -64.2973 -35.1886
10.9852 19.3530 18.3664 -180.6350 222.7410 188.5460 0.0000 0.0000 0.0000 -20.5862 -11.9707 -11.2554 2.5217 9.8773 28.5803 1.8207 3.6584 24.6171 6.3814 -14.7880 -46.4938 0.0000 0.0000 0.0000 22.5026 9.9436 -9.6458 -1.4523 -7.6176 21.5586 2.3393 -34.4777 11.8782 -3.3632 -11.2610 33.1654 -4.2791 -0.3784 9.2871 3.1732 -0.8252 -5.4451 6.0345 0.0621 -11.0312 -22.6842 -20.3444 6.6937 24.5200 -29.0372 -5.5634 8.6664 -14.8140 4.2815 -0.0000 -0.0000 0.0000 -79.9289 41.9688 53.9035 30.1305 -41.0050 -11.4952 -0.0000 -0.0000 4.7319 -22.3134 -30.4365 11.7446 -7.1250 0.0000 -0.0000 -29.2477 0.6182 33.7048 -0.0000 -0.0000 0.0000 74.7227 9.6641 96.8583 -74.4461 59.0659 -46.5722 0.0000 -0.0000 -0.7142 10.4320 -44.6741 -7.3756 7.1250 -0.0000 -0.0000 61.6448 -64.3068 -34.7042
11.0543 19.3312 18.3937 -180.6840 227.8410 189.2980 0.0000 0.0000 0.0000 -20.5794 -13.4152 -11.4025 2.4148 9.6814 27.9509 1.7094 5.8191 23.5317 5.4265 -13.8485 -42.6341 0.0000 0.0000 0.0000 22.0720 8.8847 -10.6101 -1.5094 -7.7593 21.9852 2.6072 -34.7126 10.4441 -3.7300 -11.7921 35.0005 -4.2353 -0.2831 8.9394 3.0262 -0.6972 -5.4855 5.8139 0.1069 -10.8854 -22.8512 -20.3347 6.1735 24.5361 -28.9978 -5.2374 8.6175 -14.7571 4.4775 -0.0000 -0.0000 0.0000 -79.4623 43.4625 54.7735 31.1224 -41.8362 -12.1514 -0.0000 -0.0000 2.7102 -23.7627 -29.8179 12.3486 -7.1250 0.0000 -0.0000 -29.9857 1.0198 34.6441 -0.0000 -0.0000 0.0000 74.9758 9.2742 96.1659 -73.5157 58.9479 -45.7746 0.0000 -0.0000 -1.1305 10.4205 -44.7961 -7.3830 7.1250 -0.0000 -0.0000 61.8445 -64.3753 -34.9482
11.1037 19.2888 18.4101 -181.5620 232.9110 190.4290 0.0000 0.0000 0.0000 -20.0662 -14.9066 -11.0645 2.2795 9.4255 27.1358 1.5498 7.6850 22.2829 4.7284 -13.0712 -39.6356 0.0000 0.0000 0.0000 22.3216 7.9318 -11.3085 -1.5842 -7.9402 22.5325 2.5493 -34.6592 10.7544 -3.1698 -10.9649 32.1617 -4.1477 -0.1473 8.7366 3.0001 -0.5013 -5.4567 5.6936 0.1867 -10.7570 -22.5437 -20.4352 6.0008 24.3254 -29.0942 -5.1079 8.4835 -14.7955 4.4804 0.0000 0.0000 0.0000 -78.6075 45.0272 56.1185 32.0170 -42.5607 -12.7523 -0.0000 -0.0000 1.3909 -23.8711 -29.4428 12.2724 -7.1250 0.0000 -0.0000 -30.0820 1.3497 34.6018 0.0000 0.0000 0.0000 75.2563 8.7956 95.3584 -72.6933 58.8374 -45.0705 0.0000 -0.0000 -1.6099 10.9488 -46.1666 -7.9442 7.1250 -0.0000 -0.0000 64.6856 -64.9242 -37.9205
